<svg xmlns="http://www.w3.org/2000/svg" xmlns:xlink="http://www.w3.org/1999/xlink" viewBox="0 0 775.5 768.17"><defs><style>.cls-1{fill:url(#Dégradé_sans_nom_34);}.cls-2,.cls-7{fill:#fff;}.cls-2{opacity:0.3;}.cls-2,.cls-5{isolation:isolate;}.cls-3{fill:#ffb8b8;}.cls-4{fill:#6c63ff;}.cls-5{opacity:0.1;}.cls-6{fill:#2f2e41;}.cls-8{fill:#28af82;}.cls-9{fill:#3f3d56;}.cls-10{fill:#fcfcfc;}</style><linearGradient id="Dégradé_sans_nom_34" y1="384.08" x2="775.5" y2="384.08" gradientUnits="userSpaceOnUse"><stop offset="0" stop-color="#1446a0"/><stop offset="1" stop-color="#1b98e0"/></linearGradient></defs><title>Fichier 53</title><g id="Calque_2" data-name="Calque 2"><g id="Calque_1-2" data-name="Calque 1"><path class="cls-1" d="M188.61,0s52.42,84,0,121S0,217,0,340.5,229.86,542,229.86,608,93.66,766.5,93.66,766.5s194,3.75,197.21,0S277.55,669.75,374,669.75,493.23,737.5,600.21,613,775.5,523,775.5,523V0Z"/><path class="cls-2" d="M739.81,282.86c0-21.68-13.43-39.26-30-39.26-10.41,0-19.57,7-25,17.49a18,18,0,0,0-5.73-.94,19.47,19.47,0,0,0-13.42,5.66c-4.85-13.14-15.13-22.21-27-22.21-11.12,0-20.82,7.94-26,19.71a18.58,18.58,0,0,0-10.26-3.16c-12.71,0-23,13.49-23,30.13a37,37,0,0,0,3.62,16.22H733.76A47.48,47.48,0,0,0,739.81,282.86Z"/><path class="cls-3" d="M333.55,328.69s26.39-34.12,29-19.17S348,334.76,348,334.76l-11.58,4.54-3.83-8.93Z"/><path class="cls-4" d="M312.92,344.41s19.43-21.37,23.31-17.48,15.54,5.82,13.6,13.59-42.73,33-42.73,33Z"/><path class="cls-5" d="M312.92,344.41s19.43-21.37,23.31-17.48,15.54,5.82,13.6,13.59-42.73,33-42.73,33Z"/><path class="cls-3" d="M202.21,342.47V358s-1.94,35,9.71,33S217.75,360,217.75,360l-1.94-17.48Z"/><path class="cls-3" d="M208,455.12s-17.48,27.19-23.31,29.13-36.9,19.43-40.79,36.91l-27.19,35,13.6,17.48s62.15-66,79.63-71.86,35-35,35-35Z"/><path class="cls-3" d="M345.94,410.45s36.91,5.82,31.08,29.13-62.15,71.87-62.15,71.87l-1.95,11.65L291.56,527l-9.71-9.72,1.94-5.82S307.1,490.08,309,482.31s23.31-38.84,33-40.79l-13.6-7.77Z"/><path class="cls-6" d="M122.58,556.12s7.77-11.65-3.89-9.71-19.42,3.88-19.42,11.65,9.71,62.16,21.37,58.27S122.58,595,122.58,595s5.83-15.54,9.71-17.48,3.88-11.66,0-11.66S120.64,560,122.58,556.12Z"/><path class="cls-6" d="M287.67,513.39s0-9.71-7.76,0S268.25,530.87,276,536.7s35,19.42,35,19.42,29.14,5.83,25.25-7.77c0,0-19.42-9.71-19.42-17.48s0-21.37-5.83-17.48S287.67,519.22,287.67,513.39Z"/><path class="cls-6" d="M250.77,367.72s-27.19,3.88-25.25,42.73c0,0-35,35-25.25,46.61s31.08,33,38.85,27.19,31.07-50.5,31.07-50.5,54.39,19.43,64.1,9.72,19.42-33,19.42-33L305.16,385.2Z"/><circle class="cls-3" cx="326.52" cy="233.7" r="23.31"/><path class="cls-3" d="M309,235.64S295.44,257,291.56,259s27.19,21.36,27.19,21.36,0-25.25,9.71-31.08Z"/><path class="cls-4" d="M307.1,257s-31.08-9.71-36.91,5.83-19.42,44.67-17.48,64.1,5.83,15.54,0,21.36-9.71,1.94-7.77,9.71,3.89,7.77,1.95,11.66,23.3,17.48,44.67,19.42L312.92,391s0-35,3.89-42.73,11.65-23.31,11.65-29.13V303.74a58.9,58.9,0,0,0-7.77-29.26h0S309,257,307.1,257Z"/><path class="cls-4" d="M283.79,264.77S211.92,270.6,204.16,290s-11.66,58.27-3.89,58.27,17.48,3.89,19.42,0,9.72-42.73,11.66-42.73,60.21-5.83,60.21-5.83S316.81,268.66,283.79,264.77Z"/><path class="cls-6" d="M327.47,227.12s9-8.53,13.74,2.62,21.7-1.7,20.89-5.76-8.43-2.34-18.54-9.33S314.1,193.77,303.24,217s-1.49,23.27-1.49,23.27,10.36-20.39,12.09-13.13l1.72,7.25,2.86,1.68Z"/><path class="cls-3" d="M521.12,340.19s31,29.92,15.91,30.88-23.52-17.19-23.52-17.19l-3.25-12,9.29-2.83Z"/><path class="cls-3" d="M508.27,318.39S529.5,338,525.59,341.82s-5.93,15.5-13.69,13.5-32.72-43-32.72-43Z"/><path class="cls-3" d="M420.92,346.42l13.88,7s30.36,17.45,33.86,6.17-25.14-19.18-25.14-19.18L427,334.28Z"/><path class="cls-6" d="M533.94,402.45s36.91,5.82,31.08,29.13-62.15,71.87-62.15,71.87l-1.95,11.65L479.56,519l-9.71-9.72,1.94-5.82S495.1,482.08,497,474.31s23.31-38.84,33-40.79l-13.6-7.77Z"/><path class="cls-7" d="M369.81,533.31s-5.67-12.81-10.28-1.94-7.15,18.47-.59,22.64,57.65,25.17,60.63,13.25-17-13.1-17-13.1-10-13.26-9.53-17.58-7.75-9.53-9.84-6.26S372,537,369.81,533.31Z"/><path class="cls-7" d="M475.67,505.39s0-9.71-7.76,0S456.25,522.87,464,528.7s35,19.42,35,19.42,29.14,5.83,25.25-7.77c0,0-19.42-9.71-19.42-17.48s0-21.37-5.83-17.48S475.67,511.22,475.67,505.39Z"/><path class="cls-6" d="M437.77,358.72s-27.19,3.86-25.25,42.46c0,0-62.81,125.12-49.52,132.32,24,13,16.23,18.79,24,13s70.19-122.16,70.19-122.16,76.68,1.05,70.81,8.16c-12.62,15.27,14,4.09,33.32-5.15a9.69,9.69,0,0,0,.06-17.45l-69.22-33.81Z"/><circle class="cls-3" cx="514.52" cy="225.7" r="23.31"/><path class="cls-3" d="M497,227.64S483.44,249,479.56,251s27.19,21.36,27.19,21.36,0-25.25,9.71-31.08Z"/><path class="cls-8" d="M489.63,245s-31.07-9.71-36.9,5.83-19.42,44.67-17.48,64.1,5.83,15.54,0,21.36-9.71,1.94-7.77,9.71,3.89,7.77,1.94,11.66,23.31,17.48,44.68,19.42L495.46,379s0-35,3.89-42.73S511,313,511,307.16V291.74a59,59,0,0,0-7.77-29.26h0S491.58,245,489.63,245Z"/><path class="cls-3" d="M471.79,256.77S399.92,262.6,392.16,282,419.23,350.5,427,350.5s4.06,3.88,6,0-15.59-52.94-13.65-52.94,60.21-5.83,60.21-5.83S504.81,260.66,471.79,256.77Z"/><path class="cls-6" d="M515.47,226.12s9-8.53,13.74,2.62,21.7-1.7,20.89-5.76-5-13.48-15.1-20.48-32.9-9.73-43.76,13.52-1.49,23.27-1.49,23.27S507,242.5,506,235.5l-2.44-2.09,2.86,1.68Z"/><path class="cls-2" d="M498.42,168.86c0-21.68-13.43-39.26-30-39.26-10.41,0-19.57,7-24.95,17.49a18,18,0,0,0-5.73-.94,19.51,19.51,0,0,0-13.43,5.66c-4.84-13.14-15.12-22.21-27-22.21-11.12,0-20.82,7.94-26,19.71a18.6,18.6,0,0,0-10.26-3.16c-12.71,0-23,13.49-23,30.13a37,37,0,0,0,3.62,16.22H492.37A47.59,47.59,0,0,0,498.42,168.86Z"/><path class="cls-9" d="M666.35,142.18a41.11,41.11,0,1,0,41.1,41.1A41.15,41.15,0,0,0,666.35,142.18Zm34,57.63a37.82,37.82,0,1,1,3.8-16.53A37.87,37.87,0,0,1,700.36,199.81Z"/><path class="cls-7" d="M702.34,203.11a41.09,41.09,0,0,1-73.49-3c.7-1.08,1.45-2.13,2.25-3.13a37.81,37.81,0,0,0,69.26,2.83Q701.43,201.42,702.34,203.11Z"/><path class="cls-7" d="M657.08,187a4.83,4.83,0,1,1-3.38,1.42,4.73,4.73,0,0,1,3.38-1.42m0-2a6.85,6.85,0,1,0,6.85,6.85,6.84,6.84,0,0,0-6.85-6.85Zm14.28-9.8a2.35,2.35,0,0,0,2.35-2.33v0a2.32,2.32,0,0,0-2.29-2.34h0a2.35,2.35,0,0,0,0,4.69ZM676.27,187a4.83,4.83,0,1,1-3.38,1.42,4.73,4.73,0,0,1,3.38-1.42m0-2a6.85,6.85,0,1,0,6.85,6.85,6.85,6.85,0,0,0-6.85-6.85Z"/><path class="cls-7" d="M674.9,179.9h-3.53l-2.16-4.41a2.29,2.29,0,0,0-3.13-.87,2.07,2.07,0,0,0-.5.38l-5.27,5.08a2.39,2.39,0,0,0-.68,1.64,2.18,2.18,0,0,0,1.36,2c3.34,1.92,4.51,2.14,4.51,3.1v4.83a1.18,1.18,0,1,0,2.35,0h0V185c0-1-2.23-1.76-3.54-2.79l3.59-3.78c1.37,2.09,2,3.78,2.78,3.78h4.22a1.18,1.18,0,0,0,0-2.35Z"/><path class="cls-9" d="M656.9,325.63a42.09,42.09,0,1,0,0,84.17h.83a42.08,42.08,0,0,0-.81-84.16Zm8.57,79.84a38.72,38.72,0,1,1-8.6-76.48h0a38.72,38.72,0,0,1,8.57,76.48Z"/><path class="cls-7" d="M665.47,404.47a43.29,43.29,0,0,1-7.76,4.32h-.81a42.09,42.09,0,0,1-8.58-83.29,43,43,0,0,1,8.55,2.48,38.72,38.72,0,1,0,.06,77.44A38.29,38.29,0,0,0,665.47,404.47Z"/><path class="cls-7" d="M677.66,365.93a5.14,5.14,0,0,0-5.14,3.5h-4.14l-3-9.1a1.7,1.7,0,0,0-1.62-1.17h0a1.69,1.69,0,0,0-1.6,1.24l-4.74,16.54-5.57-33.46a1.71,1.71,0,0,0-3.35-.14l-5.64,26.09h-6.33a1.71,1.71,0,1,0,0,3.41h7.67a1.7,1.7,0,0,0,1.65-1.29l4-19.41,5.46,32.8a1.69,1.69,0,0,0,1.59,1.42h.09a1.72,1.72,0,0,0,1.65-1.23l5.29-18.5,1.67,5a1.72,1.72,0,0,0,1.62,1.17h5.45a5.11,5.11,0,1,0,5.06-6.91Z"/><path class="cls-10" d="M155.68,226.08c-1.78,0-3.26,5.2-3.55,12H117.79c-.28-6.81-1.76-12-3.55-12-2,0-3.6,6.46-3.6,14.42s1.61,14.41,3.6,14.41c1.79,0,3.27-5.2,3.55-12h34.34c.29,6.81,1.77,12,3.55,12,2,0,3.61-6.45,3.61-14.41S157.67,226.08,155.68,226.08Z"/><path class="cls-9" d="M172.41,219.21a43,43,0,1,0,5.44,20.92A42.94,42.94,0,0,0,172.41,219.21Zm-37.52,60.43a39.33,39.33,0,1,1,.4,0Z"/><path class="cls-7" d="M177.85,240.13a42.93,42.93,0,0,1-66.4,36,44.27,44.27,0,0,1-1.85-5.64A39.5,39.5,0,0,0,166.92,217a45,45,0,0,1,5.49,2.22A42.66,42.66,0,0,1,177.85,240.13Z"/><path class="cls-9" d="M690.42,663.19c-.21-.35-5.26-8.78-7-26.28-1.6-16.06-.57-43.12,13.47-80.87,26.58-71.51-6.13-129.21-6.47-129.78l1.62-.94c.08.15,8.52,14.86,13.51,38.28a167,167,0,0,1-6.92,93.09c-26.54,71.39-6.81,105.19-6.6,105.52Z"/><circle class="cls-10" cx="680.03" cy="409.93" r="12.13"/><circle class="cls-7" cx="692.15" cy="484.55" r="12.13"/><circle class="cls-9" cx="682.83" cy="548.91" r="12.13"/><path class="cls-9" d="M697.75,663.63S685.62,633.78,722,611.4Z"/><path class="cls-9" d="M682.84,663.09s-5.52-31.74-48.23-31.47Z"/><path class="cls-9" d="M425.58,745.2c-.14-.24-3.59-6-4.79-18-1.09-11-.39-29.45,9.2-55.23,18.16-48.85-4.19-88.26-4.42-88.65l1.11-.64c.06.1,5.82,10.15,9.23,26.15a114,114,0,0,1-4.73,63.58c-18.13,48.76-4.65,71.84-4.51,72.07Z"/><circle class="cls-10" cx="418.48" cy="572.22" r="8.28"/><circle class="cls-7" cx="426.76" cy="623.19" r="8.28"/><circle class="cls-9" cx="420.39" cy="667.14" r="8.28"/><path class="cls-9" d="M430.59,745.5s-8.29-20.39,16.56-35.67Z"/><path class="cls-9" d="M420.4,745.13s-3.77-21.68-32.94-21.49Z"/></g></g></svg>